<?xml version="1.0" encoding="UTF-8"?>
<svg xmlns="http://www.w3.org/2000/svg" xmlns:xlink="http://www.w3.org/1999/xlink" width="50pt" height="50pt" viewBox="0 0 50 50" version="1.1">
<g id="surface2389025">
<path style=" stroke:none;fill-rule:nonzero;fill:rgb(90.980392%,28.235294%,28.627451%);fill-opacity:1;" d="M 0.773438 25 C 0.773438 11.621094 11.621094 0.773438 25 0.773438 C 38.378906 0.773438 49.226562 11.621094 49.226562 25 C 49.226562 38.378906 38.378906 49.226562 25 49.226562 C 11.621094 49.226562 0.773438 38.378906 0.773438 25 Z M 0.773438 25 "/>
<path style=" stroke:none;fill-rule:nonzero;fill:rgb(94.509804%,76.862745%,5.882353%);fill-opacity:1;" d="M 42.617188 34.914062 L 25.996094 8.125 C 25.800781 7.8125 25.460938 7.628906 25.097656 7.628906 C 24.726562 7.628906 24.386719 7.8125 24.199219 8.125 L 7.519531 34.980469 C 7.316406 35.3125 7.304688 35.722656 7.492188 36.054688 C 7.675781 36.386719 8.039062 36.601562 8.417969 36.601562 L 41.75 36.601562 C 42.335938 36.601562 42.8125 36.121094 42.8125 35.535156 C 42.824219 35.300781 42.746094 35.085938 42.617188 34.910156 Z M 42.617188 34.914062 "/>
<path style=" stroke:none;fill-rule:nonzero;fill:rgb(0%,0%,0%);fill-opacity:1;" d="M 23.855469 25.527344 L 23.515625 20.371094 C 23.445312 19.363281 23.417969 18.644531 23.417969 18.203125 C 23.417969 17.605469 23.574219 17.136719 23.886719 16.804688 C 24.199219 16.472656 24.609375 16.308594 25.117188 16.308594 C 25.730469 16.308594 26.152344 16.523438 26.355469 16.953125 C 26.5625 17.382812 26.667969 17.996094 26.667969 18.800781 C 26.667969 19.277344 26.640625 19.757812 26.589844 20.246094 L 26.132812 25.546875 C 26.082031 26.183594 25.976562 26.660156 25.808594 27.003906 C 25.644531 27.34375 25.371094 27.511719 24.992188 27.511719 C 24.601562 27.511719 24.335938 27.34375 24.179688 27.023438 C 24.035156 26.691406 23.925781 26.191406 23.859375 25.527344 Z M 25.058594 32.605469 C 24.617188 32.605469 24.238281 32.472656 23.914062 32.1875 C 23.59375 31.902344 23.425781 31.503906 23.425781 30.996094 C 23.425781 30.546875 23.582031 30.175781 23.894531 29.863281 C 24.207031 29.550781 24.589844 29.394531 25.039062 29.394531 C 25.488281 29.394531 25.878906 29.550781 26.199219 29.863281 C 26.523438 30.175781 26.679688 30.554688 26.679688 30.996094 C 26.679688 31.492188 26.511719 31.894531 26.191406 32.175781 C 25.859375 32.46875 25.488281 32.605469 25.058594 32.605469 Z M 25.058594 32.605469 "/>
</g>
</svg>
