<?xml version="1.0" encoding="UTF-8"?>
<svg xmlns="http://www.w3.org/2000/svg" xmlns:xlink="http://www.w3.org/1999/xlink" width="50pt" height="50pt" viewBox="0 0 50 50" version="1.1">
<g id="surface2389033">
<path style=" stroke:none;fill-rule:nonzero;fill:rgb(94.509804%,76.862745%,5.882353%);fill-opacity:1;" d="M 25 48.4375 C 12.078125 48.4375 1.5625 37.921875 1.5625 25 C 1.5625 12.078125 12.078125 1.5625 25 1.5625 C 37.921875 1.5625 48.4375 12.078125 48.4375 25 C 48.4375 37.921875 37.921875 48.4375 25 48.4375 Z M 25 48.4375 "/>
<path style=" stroke:none;fill-rule:nonzero;fill:rgb(94.509804%,76.862745%,5.882353%);fill-opacity:1;" d="M 25 1.875 C 37.75 1.875 48.125 12.25 48.125 25 C 48.125 37.75 37.75 48.125 25 48.125 C 12.25 48.125 1.875 37.75 1.875 25 C 1.875 12.25 12.25 1.875 25 1.875 M 25 1.25 C 11.882812 1.25 1.25 11.882812 1.25 25 C 1.25 38.117188 11.882812 48.75 25 48.75 C 38.117188 48.75 48.75 38.117188 48.75 25 C 48.75 11.882812 38.117188 1.25 25 1.25 Z M 25 1.25 "/>
<path style=" stroke:none;fill-rule:nonzero;fill:rgb(88.627451%,74.509804%,46.666667%);fill-opacity:1;" d="M 33.929688 31.828125 C 32.132812 31.828125 30.671875 30.367188 30.671875 28.570312 C 30.671875 26.773438 32.132812 25.3125 33.929688 25.3125 C 36.242188 25.3125 37.1875 25.910156 37.1875 27.382812 C 37.1875 29.136719 35.726562 31.828125 33.929688 31.828125 Z M 33.929688 31.828125 "/>
<path style=" stroke:none;fill-rule:nonzero;fill:rgb(4.705882%,4.705882%,4.705882%);fill-opacity:1;" d="M 33.929688 25.625 C 36.382812 25.625 36.875 26.296875 36.875 27.378906 C 36.875 29.148438 35.417969 31.515625 33.929688 31.515625 C 32.304688 31.515625 30.984375 30.195312 30.984375 28.570312 C 30.980469 26.945312 32.304688 25.625 33.929688 25.625 M 33.929688 25 C 31.957031 25 30.359375 26.597656 30.359375 28.570312 C 30.359375 30.542969 31.957031 32.140625 33.929688 32.140625 C 35.902344 32.140625 37.5 29.351562 37.5 27.378906 C 37.5 25.40625 35.902344 25 33.929688 25 Z M 33.929688 25 "/>
<path style=" stroke:none;fill-rule:nonzero;fill:rgb(88.627451%,74.509804%,46.666667%);fill-opacity:1;" d="M 16.070312 31.828125 C 14.273438 31.828125 12.8125 29.136719 12.8125 27.378906 C 12.8125 25.910156 13.757812 25.3125 16.070312 25.3125 C 17.867188 25.3125 19.328125 26.773438 19.328125 28.570312 C 19.328125 30.367188 17.867188 31.828125 16.070312 31.828125 Z M 16.070312 31.828125 "/>
<path style=" stroke:none;fill-rule:nonzero;fill:rgb(4.705882%,4.705882%,4.705882%);fill-opacity:1;" d="M 16.070312 25.625 C 17.695312 25.625 19.015625 26.945312 19.015625 28.570312 C 19.015625 30.195312 17.695312 31.515625 16.070312 31.515625 C 14.582031 31.515625 13.125 29.148438 13.125 27.378906 C 13.125 26.296875 13.617188 25.625 16.070312 25.625 M 16.070312 25 C 14.097656 25 12.5 25.40625 12.5 27.378906 C 12.5 29.351562 14.097656 32.140625 16.070312 32.140625 C 18.042969 32.140625 19.640625 30.542969 19.640625 28.570312 C 19.640625 26.597656 18.042969 25 16.070312 25 Z M 16.070312 25 "/>
<path style=" stroke:none;fill-rule:nonzero;fill:rgb(88.627451%,74.509804%,46.666667%);fill-opacity:1;" d="M 25 42.1875 C 24.160156 42.1875 23.351562 41.878906 22.71875 41.316406 L 22.664062 41.265625 L 22.589844 41.246094 C 18.304688 40.148438 15.3125 36.292969 15.3125 31.875 L 15.3125 20.25 C 15.3125 17.796875 17.308594 15.796875 19.765625 15.796875 L 30.234375 15.796875 C 32.691406 15.796875 34.6875 17.796875 34.6875 20.25 L 34.6875 31.875 C 34.6875 36.292969 31.695312 40.148438 27.410156 41.246094 L 27.335938 41.265625 L 27.28125 41.316406 C 26.648438 41.878906 25.839844 42.1875 25 42.1875 Z M 25 42.1875 "/>
<path style=" stroke:none;fill-rule:nonzero;fill:rgb(4.705882%,4.705882%,4.705882%);fill-opacity:1;" d="M 30.234375 16.109375 C 32.515625 16.109375 34.375 17.96875 34.375 20.25 L 34.375 31.875 C 34.375 36.152344 31.480469 39.882812 27.332031 40.945312 L 27.183594 40.984375 L 27.070312 41.082031 C 26.5 41.59375 25.761719 41.875 25 41.875 C 24.238281 41.875 23.5 41.59375 22.925781 41.082031 L 22.8125 40.984375 L 22.667969 40.945312 C 18.519531 39.878906 15.625 36.152344 15.625 31.875 L 15.625 20.25 C 15.625 17.96875 17.484375 16.109375 19.765625 16.109375 L 30.234375 16.109375 M 30.234375 15.484375 L 19.765625 15.484375 C 17.132812 15.484375 15 17.621094 15 20.25 L 15 31.875 C 15 36.539062 18.195312 40.441406 22.511719 41.550781 C 23.175781 42.140625 24.042969 42.5 25 42.5 C 25.957031 42.5 26.824219 42.140625 27.488281 41.550781 C 31.804688 40.441406 35 36.535156 35 31.875 L 35 20.25 C 35 17.621094 32.867188 15.484375 30.234375 15.484375 Z M 30.234375 15.484375 "/>
<path style=" stroke:none;fill-rule:nonzero;fill:rgb(42.745098%,29.019608%,3.529412%);fill-opacity:1;" d="M 34.6875 29.6875 L 34.6875 25 C 34.6875 20.554688 30.207031 19.40625 30.164062 19.398438 L 30.015625 19.359375 L 29.898438 19.453125 C 29.863281 19.480469 26.535156 22.007812 20.8125 22.007812 C 18.453125 22.007812 15.3125 22.449219 15.3125 26.25 L 15.3125 29.6875 L 15.199219 29.6875 C 14.769531 28.746094 12.8125 24.230469 12.8125 20.390625 C 12.8125 13.613281 17.460938 9.0625 24.375 9.0625 C 29.398438 9.0625 30.898438 12.476562 30.960938 12.621094 L 31.042969 12.8125 L 31.25 12.8125 C 33.453125 12.8125 37.1875 14.328125 37.1875 20.019531 C 37.1875 23.53125 35.210938 28.640625 34.789062 29.6875 Z M 34.6875 29.6875 "/>
<path style=" stroke:none;fill-rule:nonzero;fill:rgb(4.705882%,4.705882%,4.705882%);fill-opacity:1;" d="M 24.375 9.375 C 29.171875 9.375 30.617188 12.605469 30.671875 12.742188 L 30.832031 13.125 L 31.25 13.125 C 31.824219 13.125 36.875 13.320312 36.875 20.019531 C 36.875 22.667969 35.726562 26.257812 35 28.257812 L 35 25 C 35 21.25 31.886719 19.496094 30.238281 19.09375 L 29.945312 19.023438 L 29.707031 19.207031 C 29.671875 19.230469 26.414062 21.695312 20.8125 21.695312 C 19.375 21.695312 15 21.695312 15 26.25 L 15 28.421875 C 14.28125 26.628906 13.125 23.304688 13.125 20.390625 C 13.125 13.800781 17.644531 9.375 24.375 9.375 M 24.375 8.75 C 17.101562 8.75 12.5 13.726562 12.5 20.390625 C 12.5 24.800781 15 30 15 30 L 15.625 30 C 15.625 30 15.625 27.464844 15.625 26.25 C 15.625 22.914062 18.15625 22.320312 20.8125 22.320312 C 26.726562 22.320312 30.089844 19.699219 30.089844 19.699219 C 30.089844 19.699219 34.375 20.75 34.375 25 C 34.375 26.335938 34.375 30 34.375 30 L 35 30 C 35 30 37.5 24.039062 37.5 20.019531 C 37.5 14.371094 33.90625 12.5 31.25 12.5 C 31.25 12.5 29.683594 8.75 24.375 8.75 Z M 24.375 8.75 "/>
</g>
</svg>
